<svg width="451" height="123" viewBox="0 0 451 123" fill="none" xmlns="http://www.w3.org/2000/svg">
<path d="M329.17 58.6C330.637 58.6 332.037 58.5667 333.37 58.5C334.704 58.4333 335.77 58.3333 336.57 58.2V46.9C335.97 46.7667 335.07 46.6333 333.87 46.5C332.67 46.3667 331.57 46.3 330.57 46.3C329.17 46.3 327.837 46.4 326.57 46.6C325.37 46.7333 324.304 47.0333 323.37 47.5C322.437 47.9667 321.704 48.6 321.17 49.4C320.637 50.2 320.37 51.2 320.37 52.4C320.37 54.7333 321.137 56.3667 322.67 57.3C324.27 58.1667 326.437 58.6 329.17 58.6ZM327.97 15C332.37 15 336.037 15.5 338.97 16.5C341.904 17.5 344.237 18.9333 345.97 20.8C347.77 22.6667 349.037 24.9333 349.77 27.6C350.504 30.2667 350.87 33.2333 350.87 36.5V67.5C348.737 67.9667 345.77 68.5 341.97 69.1C338.17 69.7667 333.57 70.1 328.17 70.1C324.77 70.1 321.67 69.8 318.87 69.2C316.137 68.6 313.77 67.6333 311.77 66.3C309.77 64.9 308.237 63.1 307.17 60.9C306.104 58.7 305.57 56 305.57 52.8C305.57 49.7333 306.17 47.1333 307.37 45C308.637 42.8667 310.304 41.1667 312.37 39.9C314.437 38.6333 316.804 37.7333 319.47 37.2C322.137 36.6 324.904 36.3 327.77 36.3C329.704 36.3 331.404 36.4 332.87 36.6C334.404 36.7333 335.637 36.9333 336.57 37.2V35.8C336.57 33.2667 335.804 31.2333 334.27 29.7C332.737 28.1667 330.07 27.4 326.27 27.4C323.737 27.4 321.237 27.6 318.77 28C316.304 28.3333 314.17 28.8333 312.37 29.5L310.47 17.5C311.337 17.2333 312.404 16.9667 313.67 16.7C315.004 16.3667 316.437 16.1 317.97 15.9C319.504 15.6333 321.104 15.4333 322.77 15.3C324.504 15.1 326.237 15 327.97 15Z" fill="#EB5757"/>
<path d="M379.444 58.3C382.177 58.3 384.11 58.0333 385.244 57.5C386.377 56.9667 386.944 55.9333 386.944 54.4C386.944 53.2 386.21 52.1667 384.744 51.3C383.277 50.3667 381.044 49.3333 378.044 48.2C375.71 47.3333 373.577 46.4333 371.644 45.5C369.777 44.5667 368.177 43.4667 366.844 42.2C365.51 40.8667 364.477 39.3 363.744 37.5C363.01 35.7 362.644 33.5333 362.644 31C362.644 26.0667 364.477 22.1667 368.144 19.3C371.81 16.4333 376.844 15 383.244 15C386.444 15 389.51 15.3 392.444 15.9C395.377 16.4333 397.71 17.0333 399.444 17.7L396.844 29.3C395.11 28.7 393.21 28.1667 391.144 27.7C389.144 27.2333 386.877 27 384.344 27C379.677 27 377.344 28.3 377.344 30.9C377.344 31.5 377.444 32.0333 377.644 32.5C377.844 32.9667 378.244 33.4333 378.844 33.9C379.444 34.3 380.244 34.7667 381.244 35.3C382.31 35.7667 383.644 36.3 385.244 36.9C388.51 38.1 391.21 39.3 393.344 40.5C395.477 41.6333 397.144 42.9 398.344 44.3C399.61 45.6333 400.477 47.1333 400.944 48.8C401.477 50.4667 401.744 52.4 401.744 54.6C401.744 59.8 399.777 63.7333 395.844 66.4C391.977 69.0667 386.477 70.4 379.344 70.4C374.677 70.4 370.777 70 367.644 69.2C364.577 68.4 362.444 67.7333 361.244 67.2L363.744 55.1C366.277 56.1 368.877 56.9 371.544 57.5C374.21 58.0333 376.844 58.3 379.444 58.3Z" fill="#EB5757"/>
<path d="M427.979 58.3C430.712 58.3 432.646 58.0333 433.779 57.5C434.912 56.9667 435.479 55.9333 435.479 54.4C435.479 53.2 434.746 52.1667 433.279 51.3C431.812 50.3667 429.579 49.3333 426.579 48.2C424.246 47.3333 422.112 46.4333 420.179 45.5C418.312 44.5667 416.712 43.4667 415.379 42.2C414.046 40.8667 413.012 39.3 412.279 37.5C411.546 35.7 411.179 33.5333 411.179 31C411.179 26.0667 413.012 22.1667 416.679 19.3C420.346 16.4333 425.379 15 431.779 15C434.979 15 438.046 15.3 440.979 15.9C443.912 16.4333 446.246 17.0333 447.979 17.7L445.379 29.3C443.646 28.7 441.746 28.1667 439.679 27.7C437.679 27.2333 435.412 27 432.879 27C428.212 27 425.879 28.3 425.879 30.9C425.879 31.5 425.979 32.0333 426.179 32.5C426.379 32.9667 426.779 33.4333 427.379 33.9C427.979 34.3 428.779 34.7667 429.779 35.3C430.846 35.7667 432.179 36.3 433.779 36.9C437.046 38.1 439.746 39.3 441.879 40.5C444.012 41.6333 445.679 42.9 446.879 44.3C448.146 45.6333 449.012 47.1333 449.479 48.8C450.012 50.4667 450.279 52.4 450.279 54.6C450.279 59.8 448.312 63.7333 444.379 66.4C440.512 69.0667 435.012 70.4 427.879 70.4C423.212 70.4 419.312 70 416.179 69.2C413.112 68.4 410.979 67.7333 409.779 67.2L412.279 55.1C414.812 56.1 417.412 56.9 420.079 57.5C422.746 58.0333 425.379 58.3 427.979 58.3Z" fill="#EB5757"/>
<path d="M9.70003 17H29.4V24.8H9.70003V48.8C9.70003 51.4 9.90003 53.5667 10.3 55.3C10.7 56.9667 11.3 58.3 12.1 59.3C12.9 60.2333 13.9 60.9 15.1 61.3C16.3 61.7 17.7 61.9 19.3 61.9C22.1 61.9 24.3334 61.6 26 61C27.7334 60.3333 28.9334 59.8667 29.6 59.6L31.4 67.3C30.4667 67.7667 28.8334 68.3333 26.5 69C24.1667 69.7333 21.5 70.1 18.5 70.1C14.9667 70.1 12.0334 69.6667 9.70003 68.8C7.43336 67.8667 5.60002 66.5 4.20002 64.7C2.80002 62.9 1.80002 60.7 1.20002 58.1C0.666691 55.4333 0.400024 52.3667 0.400024 48.9V2.5L9.70003 0.899995V17Z" fill="#EB5757"/>
<path d="M37.3578 43.1C37.3578 38.5 38.0245 34.5 39.3578 31.1C40.6912 27.6333 42.4578 24.7667 44.6578 22.5C46.8578 20.2333 49.3912 18.5333 52.2578 17.4C55.1245 16.2667 58.0578 15.7 61.0578 15.7C68.0578 15.7 73.4245 17.9 77.1578 22.3C80.8912 26.6333 82.7578 33.2667 82.7578 42.2C82.7578 42.6 82.7578 43.1333 82.7578 43.8C82.7578 44.4 82.7245 44.9667 82.6578 45.5H47.0578C47.4578 50.9 49.0245 55 51.7578 57.8C54.4912 60.6 58.7578 62 64.5578 62C67.8245 62 70.5578 61.7333 72.7578 61.2C75.0245 60.6 76.7245 60.0333 77.8578 59.5L79.1578 67.3C78.0245 67.9 76.0245 68.5333 73.1578 69.2C70.3578 69.8667 67.1578 70.2 63.5578 70.2C59.0245 70.2 55.0912 69.5333 51.7578 68.2C48.4912 66.8 45.7912 64.9 43.6578 62.5C41.5245 60.1 39.9245 57.2667 38.8578 54C37.8578 50.6667 37.3578 47.0333 37.3578 43.1ZM73.0578 38C73.1245 33.8 72.0578 30.3667 69.8578 27.7C67.7245 24.9667 64.7578 23.6 60.9578 23.6C58.8245 23.6 56.9245 24.0333 55.2578 24.9C53.6578 25.7 52.2912 26.7667 51.1578 28.1C50.0245 29.4333 49.1245 30.9667 48.4578 32.7C47.8578 34.4333 47.4578 36.2 47.2578 38H73.0578Z" fill="#EB5757"/>
<path d="M113.717 62.3C115.917 62.3 117.851 62.2667 119.517 62.2C121.251 62.0667 122.684 61.8667 123.817 61.6V46.1C123.151 45.7667 122.051 45.5 120.517 45.3C119.051 45.0333 117.251 44.9 115.117 44.9C113.717 44.9 112.217 45 110.617 45.2C109.084 45.4 107.651 45.8333 106.317 46.5C105.051 47.1 103.984 47.9667 103.117 49.1C102.251 50.1667 101.817 51.6 101.817 53.4C101.817 56.7333 102.884 59.0667 105.017 60.4C107.151 61.6667 110.051 62.3 113.717 62.3ZM112.917 15.7C116.651 15.7 119.784 16.2 122.317 17.2C124.917 18.1333 126.984 19.5 128.517 21.3C130.117 23.0333 131.251 25.1333 131.917 27.6C132.584 30 132.917 32.6667 132.917 35.6V68.1C132.117 68.2333 130.984 68.4333 129.517 68.7C128.117 68.9 126.517 69.1 124.717 69.3C122.917 69.5 120.951 69.6667 118.817 69.8C116.751 70 114.684 70.1 112.617 70.1C109.684 70.1 106.984 69.8 104.517 69.2C102.051 68.6 99.9172 67.6667 98.1172 66.4C96.3172 65.0667 94.9172 63.3333 93.9172 61.2C92.9172 59.0667 92.4172 56.5 92.4172 53.5C92.4172 50.6333 92.9839 48.1667 94.1172 46.1C95.3172 44.0333 96.9172 42.3667 98.9172 41.1C100.917 39.8333 103.251 38.9 105.917 38.3C108.584 37.7 111.384 37.4 114.317 37.4C115.251 37.4 116.217 37.4667 117.217 37.6C118.217 37.6667 119.151 37.8 120.017 38C120.951 38.1333 121.751 38.2667 122.417 38.4C123.084 38.5333 123.551 38.6333 123.817 38.7V36.1C123.817 34.5667 123.651 33.0667 123.317 31.6C122.984 30.0667 122.384 28.7333 121.517 27.6C120.651 26.4 119.451 25.4667 117.917 24.8C116.451 24.0667 114.517 23.7 112.117 23.7C109.051 23.7 106.351 23.9333 104.017 24.4C101.751 24.8 100.051 25.2333 98.9172 25.7L97.8172 18C99.0172 17.4667 101.017 16.9667 103.817 16.5C106.617 15.9667 109.651 15.7 112.917 15.7Z" fill="#EB5757"/>
<path d="M148.363 18.5C150.497 17.9667 153.297 17.4 156.763 16.8C160.297 16.2 164.363 15.9 168.963 15.9C172.297 15.9 175.097 16.3667 177.363 17.3C179.63 18.1667 181.53 19.4667 183.063 21.2C183.53 20.8667 184.263 20.4 185.263 19.8C186.263 19.2 187.497 18.6333 188.963 18.1C190.43 17.5 192.063 17 193.863 16.6C195.663 16.1333 197.597 15.9 199.663 15.9C203.663 15.9 206.93 16.5 209.463 17.7C211.997 18.8333 213.963 20.4667 215.363 22.6C216.83 24.7333 217.797 27.2667 218.263 30.2C218.797 33.1333 219.063 36.3333 219.063 39.8V69H209.763V41.8C209.763 38.7333 209.597 36.1 209.263 33.9C208.997 31.7 208.43 29.8667 207.563 28.4C206.763 26.9333 205.63 25.8667 204.163 25.2C202.763 24.4667 200.93 24.1 198.663 24.1C195.53 24.1 192.93 24.5333 190.863 25.4C188.863 26.2 187.497 26.9333 186.763 27.6C187.297 29.3333 187.697 31.2333 187.963 33.3C188.23 35.3667 188.363 37.5333 188.363 39.8V69H179.063V41.8C179.063 38.7333 178.897 36.1 178.563 33.9C178.23 31.7 177.63 29.8667 176.763 28.4C175.963 26.9333 174.83 25.8667 173.363 25.2C171.963 24.4667 170.163 24.1 167.963 24.1C167.03 24.1 166.03 24.1333 164.963 24.2C163.897 24.2667 162.863 24.3667 161.863 24.5C160.93 24.5667 160.063 24.6667 159.263 24.8C158.463 24.9333 157.93 25.0333 157.663 25.1V69H148.363V18.5Z" fill="#EB5757"/>
<path fill-rule="evenodd" clip-rule="evenodd" d="M251.807 117.49L267.234 122.119C269.865 122.908 271.392 119.233 268.977 117.925C267.244 116.986 267.435 114.44 269.289 113.771L274.534 111.877C277.115 110.945 277.042 107.27 274.426 106.442L268.474 104.555C265.494 103.611 265.764 99.3094 268.838 98.7447L274.927 97.626C277.984 97.0644 278.274 92.7961 275.322 91.8254L266.878 89.0496C264.826 88.3752 263.439 86.4595 263.439 84.2997V68.2163C301.5 88.0053 320 -1.58073 249 19.1302V113.717C249 115.456 250.141 116.99 251.807 117.49ZM263 56.4194V29.9194C288 19.4193 288 70.4193 263 56.4194Z" fill="#EB5757"/>
</svg>
